# AST/ASF file generated using VICON BodyLanguage
# -----------------------------------------------
:version 1.10
:name VICON
:units
  mass 1.0
  length 0.45
  angle deg
:documentation
   .ast/.asf automatically generated from VICON data using
   VICON BodyBuilder and BodyLanguage model FoxedUp or BRILLIANT.MOD
:root
   order TX TY TZ RX RY RZ
   axis XYZ
   position 0 0 0  
   orientation 0 0 0 
:bonedata
  begin
     id 1 
     name lhipjoint
     direction 0.558404 -0.748506 0.357664 
     length 2.4234 
     axis 0 0 0  XYZ
  end
  begin
     id 2 
     name lfemur
     direction 0.34202 -0.939693 0  
     length 7.14567  
     axis 0 0 20  XYZ
    dof rx ry rz
    limits (-160.0 20.0)
           (-70.0 70.0)
           (-60.0 70.0)
  end
  begin
     id 3 
     name ltibia
     direction 0.34202 -0.939693 0   
     length 8.13956   
     axis 0 0 20   XYZ
    dof rx
    limits (-10.0 170.0)
  end
  begin
     id 4 
     name lfoot
     direction 0.0791314 -0.217412 0.972867   
     length 2.00134   
     axis -90 7.62852e-016 20   XYZ
    dof rx rz
    limits (-45.0 90.0)
           (-70.0 20.0)
  end
  begin
     id 5 
     name ltoes
     direction 1.53547e-011 -4.21922e-011 1   
     length 1.00735   
     axis -90 7.62852e-016 20   XYZ
    dof rx
    limits (-90.0 20.0)
  end
  begin
     id 6 
     name rhipjoint
     direction -0.496392 -0.78327 0.374276   
     length 2.31584  
     axis 0 0 0  XYZ 
  end
  begin
     id 7 
     name rfemur
     direction -0.34202 -0.939693 0   
     length 7.47417   
     axis 0 0 -20   XYZ
    dof rx ry rz
    limits (-160.0 20.0)
           (-70.0 70.0)
           (-70.0 60.0)
  end
  begin
     id 8 
     name rtibia
     direction -0.34202 -0.939693 0   
     length 7.69071   
     axis 0 0 -20   XYZ
    dof rx
    limits (-10.0 170.0)
 end
 begin
     id 9 
     name rfoot
     direction -0.103069 -0.28318 0.953512   
     length 2.16135  
     axis -90 -7.62852e-016 -20   XYZ
    dof rx rz
    limits (-45.0 90.0)
           (-20.0 70.0)
  end
  begin
     id 10 
     name rtoes
     direction -1.53581e-011 -4.21904e-011 1   
     length 1.07867   
     axis -90 -7.62852e-016 -20   XYZ
    dof rx
    limits (-90.0 20.0)
  end
  begin
     id 11 
     name lowerback
     direction -0.0258961 0.994776 -0.0987407   
     length 2.19412   
     axis 0 0 0   XYZ
    dof rx ry rz
    limits (-20.0 45.0)
           (-30.0 30.0)
           (-30.0 30.0)
  end
  begin
     id 12 
     name upperback
     direction 0.0402454 0.999185 0.00320666   
     length 2.18445   
     axis 0 0 0   XYZ
    dof rx ry rz
    limits (-20.0 45.0)
           (-30.0 30.0)
           (-30.0 30.0)
  end
  begin
     id 13 
     name thorax
     direction 0.0519376 0.997415 0.0496558   
     length 2.21487   
     axis 0 0 0   XYZ
    dof rx ry rz
    limits (-20.0 45.0)
           (-30.0 30.0)
           (-30.0 30.0)
  end
  begin
     id 14 
     name lowerneck
     direction -0.0921276 0.983211 0.157506   
     length 1.61201   
     axis 0 0 0   XYZ
    dof rx ry rz
    limits (-20.0 45.0)
           (-30.0 30.0)
           (-30.0 30.0)
  end
  begin
     id 15 
     name upperneck
     direction 0.0820814 0.98162 -0.172292   
     length 1.65275   
     axis 0 0 0   XYZ
    dof rx ry rz
    limits (-20.0 45.0)
           (-30.0 30.0)
           (-30.0 30.0)
  end
  begin
     id 16
     name head
     direction 0.0336554 0.996413 -0.0776455  
     length 1.66415  
     axis 0 0 0   XYZ
    dof rx ry rz
    limits (-20.0 45.0)
           (-30.0 30.0)
           (-30.0 30.0)
  end
  begin
     id 17 
     name lclavicle
     direction 0.94696 0.284418 -0.149576  
     length 3.41447  
     axis 0 0 0   XYZ
    dof ry rz
    limits (-20.0 10.0)
           (0.0 20.0)
  end
  begin
     id 18 
     name lhumerus
     direction 1 -0.000130264 -9.81312e-005   
     length 5.19964   
     axis 180 -30 -90   XYZ
    dof rx ry rz
    limits (-60.0 90.0)
           (-90.0 90.0)
           (-90.0 90.0)
  end
  begin
     id 19
     name lradius
     direction 1 -4.48961e-011 1.43854e-026   
     length 3.32189   
     axis 180 -30 -90   XYZ
    dof rx
    limits (-10.0 170.0)
  end
  begin
     id 20
     name lwrist
     direction 1 -4.48958e-011 3.1502e-026   
     length 1.66095   
     axis -1.97692e-014 90 90   XYZ
    dof ry
    limits (-180.0 0.0)
 end
  begin
     id 21 
     name lhand
     direction 1 -4.48927e-011 6.3004e-026   
     length 0.645616   
     axis -4.02019e-014 90 90   XYZ
    dof rx rz
    limits (-90.0 90.0)
           (-45.0 45.0)
  end
  begin
     id 22 
     name lfingers
     direction 1 -4.4904e-011 1.26008e-025   
     length 0.520512   
     axis -8.04039e-014 90 90   XYZ
    dof rx
    limits (0.0 90.0)
  end
  begin
     id 23
     name lthumb
     direction 0.707107 -6.34947e-011 0.707107   
     length 0.747354   
     axis -90 45 2.85299e-015   XYZ
    dof rx rz
    limits (-45.0 45.0)
           (-45.0 45.0)
  end
  begin
     id 24 
     name rclavicle
     direction -0.909391 0.383475 -0.161107   
     length 3.25176  
     axis 0 0 0   XYZ 
    dof ry rz
    limits (-10.0 20.0)
           (-20.0 0.0)
  end
  begin
     id 25 
     name rhumerus
     direction -1 -4.48965e-011 -1.81384e-027  
     length 5.6595   
     axis 180 30 90   XYZ
    dof rx ry rz
    limits (-90.0 60.0)
           (-90.0 90.0)
           (-90.0 90.0)
  end
  begin
     id 26 
     name rradius
     direction -1 -4.48996e-011 -8.09397e-027   
     length 3.37604   
     axis 180 30 90   XYZ
    dof rx
    limits (-10.0 170.0)
  end
  begin
     id 27 
     name rwrist
     direction -1 -4.48927e-011 -1.56669e-026   
     length 1.68802   
     axis 1.21142e-014 -90 -90   XYZ
    dof ry
    limits (-180.0 0.0)
  end
  begin
     id 28
     name rhand
     direction -1 -4.48912e-011 -3.13339e-026   
     length 0.824702   
     axis 1.99937e-014 -90 -90   XYZ
    dof rx rz
    limits (-90.0 90.0)
           (-45.0 45.0)
  end
  begin
     id 29
     name rfingers
     direction -1 -4.49011e-011 -6.26677e-026   
     length 0.664896   
     axis 3.99874e-014 -90 -90   XYZ
    dof rx
    limits (0.0 90.0)
  end
  begin
     id 30
     name rthumb
     direction -0.707107 -6.34931e-011 0.707107   
     length 0.954662   
     axis -90 -45 -2.85299e-015   XYZ
    dof rx rz
    limits (-45.0 45.0)
           (-45.0 45.0)
  end
:hierarchy
  begin
    root lhipjoint rhipjoint lowerback
    lhipjoint lfemur
    lfemur ltibia
    ltibia lfoot
    lfoot ltoes
    rhipjoint rfemur
    rfemur rtibia
    rtibia rfoot
    rfoot rtoes
    lowerback upperback
    upperback thorax
    thorax lowerneck lclavicle rclavicle
    lowerneck upperneck
    upperneck head
    lclavicle lhumerus
    lhumerus lradius
    lradius lwrist
    lwrist lhand lthumb
    lhand lfingers
    rclavicle rhumerus
    rhumerus rradius
    rradius rwrist
    rwrist rhand rthumb
    rhand rfingers
  end

#!OML:ASF F:\VICON\USERDATA\INSTALL\rory3\rory3.ASF
:FULLY-SPECIFIED
:DEGREES
54
root 12.324 17.8768 -44.1446 3.58997 -13.3777 -1.78718
lowerback 5.70573 2.3171 -1.36986
upperback 2.68832 3.02897 2.4276
thorax -0.630058 1.48956 3.0758
lowerneck -9.67017 -3.34972 -15.3089
upperneck 30.1473 -2.87117 4.63459
head 11.8227 -2.47818 3.99691
rclavicle 1.74931e-014 3.18055e-015
rhumerus -28.3291 -14.7697 -69.1286
rradius 45.8028
rwrist -21.693
rhand -13.6688 17.0147
rfingers 7.12502
rthumb 12.4484 -12.5945
lclavicle 1.74931e-014 3.18055e-015
lhumerus -47.2357 42.5013 59.7479
lradius 18.3947
lwrist -24.1797
lhand -0.679119 31.6522
lfingers 7.12502
lthumb 24.9397 60.0448
rfemur -14.4014 2.59666 19.895
rtibia 38.1942
rfoot -23.1431 -8.587
rtoes 15.7828
lfemur -21.4339 -5.08378 -13.625
ltibia 39.1403
lfoot -17.9323 2.15529
ltoes -1.72681
55
root 12.3393 17.8845 -44.1368 3.99791 -12.7689 -1.58975
lowerback 5.91158 2.03244 -1.7261
upperback 2.03481 2.64151 2.46332
thorax -1.40969 1.31212 3.31817
lowerneck -9.09721 -3.41738 -15.327
upperneck 29.8094 -3.08574 4.67927
head 11.5978 -2.56536 3.98327
rclavicle -1.27222e-014 2.06736e-014
rhumerus -29.1717 -14.4831 -69.1346
rradius 46.1283
rwrist -21.6754
rhand -13.5734 17.1454
rfingers 7.12502
rthumb 12.5404 -12.4583
lclavicle -1.27222e-014 2.06736e-014
lhumerus -47.4741 41.6466 60.0026
lradius 18.7258
lwrist -23.4054
lhand -0.213937 32.1154
lfingers 7.12502
lthumb 25.3854 60.4454
rfemur -14.7256 2.42418 19.6692
rtibia 38.0442
rfoot -23.2281 -8.86367
rtoes 16.7689
lfemur -22.0393 -4.41583 -13.8272
ltibia 39.0368
lfoot -17.7771 1.02262
ltoes -1.52849
56
root 12.3682 17.8894 -44.0875 3.80981 -13.677 -1.62327
lowerback 6.28013 2.21014 -1.84699
upperback 1.70505 2.87506 2.57005
thorax -1.98271 1.44048 3.4581
lowerneck -8.41797 -3.42901 -15.5876
upperneck 29.3303 -3.212 4.80746
head 11.2971 -2.62589 4.05214
rclavicle -8.74653e-015 3.18055e-015
rhumerus -29.8425 -14.0908 -69.0835
rradius 46.2835
rwrist -21.662
rhand -13.0763 17.3116
rfingers 7.12502
rthumb 13.0197 -12.2621
lclavicle -8.74653e-015 3.18055e-015
lhumerus -47.9719 41.0533 60.1026
lradius 19.0923
lwrist -22.9116
lhand 0.119542 32.0162
lfingers 7.12502
lthumb 25.7049 60.3004
rfemur -14.4048 2.93366 19.487
rtibia 37.9048
rfoot -23.1883 -8.53716
rtoes 16.3449
lfemur -21.4165 -3.90909 -14.0233
ltibia 38.9294
lfoot -17.9491 1.36313
ltoes -1.39342
57
root 12.3934 17.8947 -44.0447 3.90205 -13.5842 -1.55126
lowerback 8.8437 2.0757 -2.24609
upperback -0.275557 2.67743 2.75147
thorax -5.49186 1.42412 3.78143
lowerneck -7.88057 -3.29663 -15.752
upperneck 30.4452 -3.04359 4.58089
head 11.6143 -2.65316 4.04312
rclavicle 9.24349e-015 -9.54166e-015
rhumerus -32.7591 -12.5377 -68.581
rradius 46.7562
rwrist -21.9692
rhand -12.8685 17.2308
rfingers 7.12502
rthumb 13.22 -12.33
lclavicle 9.24349e-015 -9.54166e-015
lhumerus -50.9303 38.9081 59.0591
lradius 19.8183
lwrist -21.5163
lhand 0.471267 31.4956
lfingers 7.12502
lthumb 26.0417 59.7307
rfemur -14.3142 3.0319 19.3288
rtibia 37.8205
rfoot -23.288 -8.8099
rtoes 15.2248
lfemur -21.3837 -3.84944 -14.2146
ltibia 38.8342
lfoot -17.88 1.31421
ltoes -0.879833
58
root 12.4198 17.8996 -43.9982 4.07779 -13.4097 -1.43363
lowerback 8.56189 1.95898 -2.35537
upperback -0.14454 2.51547 2.82177
thorax -5.18951 1.34207 3.94876
lowerneck -8.87119 -3.65335 -15.8983
upperneck 30.241 -3.34109 4.5728
head 11.7786 -2.78605 4.01399
rclavicle -1.68967e-014 2.38542e-015
rhumerus -32.3964 -12.5787 -68.7611
rradius 46.8469
rwrist -22.0583
rhand -13.1376 17.0772
rfingers 7.12502
rthumb 12.9605 -12.5003
lclavicle -1.68967e-014 2.38542e-015
lhumerus -49.9515 38.7461 60.1542
lradius 20.1888
lwrist -20.7228
lhand 0.87008 31.361
lfingers 7.12502
lthumb 26.4235 59.5393
rfemur -14.3099 3.04419 19.0999
rtibia 37.7298
rfoot -23.2972 -8.96296
rtoes 15.3057
lfemur -21.4541 -3.82903 -14.4689
ltibia 38.7348
lfoot -17.8274 1.33255
ltoes -1.07298
59
root 12.4479 17.9045 -43.9548 4.20104 -13.3029 -1.42711
lowerback 8.30581 1.82881 -2.37295
upperback -0.263089 2.35008 2.91771
thorax -5.1598 1.26401 4.08706
lowerneck -8.58739 -3.76783 -16.0278
upperneck 29.6807 -3.55238 4.63836
head 11.53 -2.86807 4.02212
rclavicle -6.95746e-016 -1.82882e-014
rhumerus -32.6158 -12.3372 -68.9004
rradius 46.9593
rwrist -22.0385
rhand -13.6244 16.9459
rfingers 7.12502
rthumb 12.4913 -12.6608
lclavicle -6.95746e-016 -1.82882e-014
lhumerus -49.4077 37.935 61.2022
lradius 20.71
lwrist -19.5689
lhand 1.28305 31.8483
lfingers 7.12502
lthumb 26.8187 59.9666
rfemur -14.2561 2.94566 18.9678
rtibia 37.6471
rfoot -23.2454 -8.95624
rtoes 16.2639
lfemur -21.4258 -3.75612 -14.6159
ltibia 38.6331
lfoot -17.8677 1.25908
ltoes -1.2879
60
root 12.4746 17.9062 -43.9281 4.21418 -12.977 -1.21161
lowerback 8.38066 1.64835 -2.63689
upperback -0.358765 2.08749 2.98623
thorax -5.29136 1.14634 4.3424
lowerneck -8.71689 -3.89866 -16.1738
upperneck 29.3787 -3.71764 4.7423
head 11.4643 -2.93351 4.0564
rclavicle -8.44835e-015 -1.51076e-014
rhumerus -32.6775 -12.1826 -69.0589
rradius 47.0062
rwrist -22.0204
rhand -13.8651 17.0138
rfingers 7.12502
rthumb 12.2592 -12.6069
lclavicle -8.44835e-015 -1.51076e-014
lhumerus -48.8977 37.472 62.002
lradius 21.1861
lwrist -18.8239
lhand 1.63955 32.1451
lfingers 7.12502
lthumb 27.1598 60.2106
rfemur -14.1647 2.6112 18.6522
rtibia 37.5518
rfoot -23.2397 -9.20244
rtoes 15.8131
lfemur -21.4405 -3.65786 -14.9546
ltibia 38.5478
lfoot -17.8713 0.859725
ltoes -1.1106
61
root 12.5156 17.9089 -43.8531 4.23344 -13.7338 -0.982427
lowerback 7.91177 1.9083 -2.64773
upperback -0.227301 2.43175 2.85677
thorax -4.91656 1.30667 4.1778
lowerneck -9.30926 -4.20421 -16.1365
upperneck 29.2471 -4.08114 4.8417
head 11.5777 -3.06987 4.03092
rclavicle -1.83876e-014 3.65764e-014
rhumerus -32.7198 -12.5341 -69.1413
rradius 47.0072
rwrist -21.9498
rhand -13.5576 17.178
rfingers 7.12502
rthumb 12.5557 -12.4247
lclavicle -1.83876e-014 3.65764e-014
lhumerus -48.0812 37.1146 62.7107
lradius 21.5176
lwrist -18.6515
lhand 1.80555 31.7308
lfingers 7.12502
lthumb 27.3186 59.7714
rfemur -14.1142 2.62075 18.0918
rtibia 37.4322
rfoot -23.1934 -8.89874
rtoes 13.6103
lfemur -21.0862 -3.68983 -15.4777
ltibia 38.4946
lfoot -18.2189 1.54481
ltoes -0.400252
